<svg xmlns="http://www.w3.org/2000/svg" xmlns:xlink="http://www.w3.org/1999/xlink" width="500" zoomAndPan="magnify" viewBox="0 0 375 374.999991" height="500" preserveAspectRatio="xMidYMid meet" version="1.0"><defs><g/><clipPath id="695201922a"><path d="M 79 82 L 296 82 L 296 300 L 79 300 Z M 79 82 " clip-rule="nonzero"/></clipPath><clipPath id="83a144dfbc"><path d="M 233.078125 44.78125 L 332.683594 240.664062 L 142.152344 337.546875 L 42.546875 141.667969 Z M 233.078125 44.78125 " clip-rule="nonzero"/></clipPath><clipPath id="aea00a9a14"><path d="M 233.078125 44.78125 L 332.683594 240.664062 L 142.152344 337.546875 L 42.546875 141.667969 Z M 233.078125 44.78125 " clip-rule="nonzero"/></clipPath><clipPath id="b8e55d2bd0"><path d="M 267.851562 120.949219 C 227.890625 75.246094 159.375 69.597656 115.125 108.347656 C 105.566406 116.71875 97.8125 126.675781 91.890625 137.847656 L 92.171875 137.996094 L 91.890625 137.847656 C 81.742188 156.980469 77.746094 178.714844 80.324219 200.699219 C 82.960938 223.171875 92.332031 244.175781 107.429688 261.441406 C 147.359375 307.097656 215.804688 312.746094 260.007812 274.03125 C 304.257812 235.277344 307.816406 166.648438 267.851562 120.949219 Z M 103.613281 240.929688 C 105.304688 242.863281 106.78125 244.375 107.894531 245.453125 C 115.304688 252.625 125.546875 253.179688 136.390625 253.765625 C 148.914062 254.445312 163.109375 255.214844 175.320312 266.585938 C 185.660156 276.214844 195.8125 284.644531 207.289062 288.484375 C 195.652344 285.011719 185.414062 277.109375 175.339844 268.332031 C 163.191406 257.753906 149.308594 256.535156 137.058594 255.457031 C 126.066406 254.492188 115.683594 253.582031 108.179688 246.195312 C 101.488281 239.605469 95.195312 231.058594 90.386719 221.050781 C 94.726562 229.8125 99.730469 236.492188 103.613281 240.929688 Z M 98.871094 234.070312 C 100.386719 236.109375 101.855469 237.90625 103.195312 239.4375 C 105.078125 241.589844 106.71875 243.242188 107.921875 244.386719 C 115.152344 251.246094 125.203125 251.453125 135.84375 251.667969 C 148.691406 251.929688 163.253906 252.222656 175.597656 264.492188 C 185.730469 274.566406 195.132812 283.300781 206.339844 287.660156 C 195.363281 283.695312 185.578125 275.539062 175.617188 266.261719 C 163.289062 254.777344 149.007812 254.007812 136.410156 253.324219 C 125.652344 252.742188 115.492188 252.195312 108.199219 245.136719 C 106.960938 243.9375 103.199219 240.125 98.871094 234.070312 Z M 175.058594 270.40625 C 163.136719 260.71875 149.679688 259.085938 137.808594 257.648438 C 126.542969 256.285156 115.902344 254.992188 108.164062 247.25 C 102.136719 241.226562 96.449219 233.59375 91.863281 224.757812 C 95.976562 232.46875 100.488281 238.386719 103.996094 242.394531 C 105.511719 244.128906 106.839844 245.507812 107.863281 246.515625 C 115.480469 254.015625 125.945312 254.933594 137.019531 255.910156 C 149.199219 256.980469 163.003906 258.191406 175.042969 268.671875 C 185.390625 277.6875 195.914062 285.789062 207.933594 289.160156 C 195.730469 286.15625 185.113281 278.570312 175.058594 270.402344 Z M 208.328125 289.753906 C 195.636719 287.195312 184.699219 279.972656 174.777344 272.476562 C 163.132812 263.679688 150.703125 261.765625 138.679688 259.910156 C 127.097656 258.128906 116.15625 256.441406 108.140625 248.3125 C 102.128906 242.210938 96.460938 234.519531 91.878906 225.644531 C 96.128906 233.664062 100.792969 239.78125 104.347656 243.84375 C 105.695312 245.390625 106.890625 246.640625 107.835938 247.585938 C 115.691406 255.441406 126.410156 256.742188 137.753906 258.117188 C 150.140625 259.617188 162.949219 261.171875 174.765625 270.769531 C 185.015625 279.097656 195.84375 286.820312 208.332031 289.757812 Z M 104.472656 245.0625 C 105.554688 246.300781 106.667969 247.496094 107.796875 248.648438 C 115.925781 256.890625 126.945312 258.589844 138.609375 260.386719 C 150.570312 262.230469 162.945312 264.136719 174.484375 272.859375 C 183.765625 279.875 194.808594 287.234375 207.355469 290.066406 C 195.421875 287.800781 184.640625 281.660156 174.492188 274.550781 C 163.199219 266.636719 151.257812 264.414062 139.710938 262.261719 C 127.746094 260.035156 116.445312 257.933594 108.121094 249.371094 C 101.53125 242.601562 95.339844 233.941406 90.554688 223.894531 C 94.320312 231.640625 99.054688 238.871094 104.472656 245.066406 Z M 104.769531 246.457031 C 105.746094 247.574219 106.746094 248.664062 107.769531 249.710938 C 116.207031 258.386719 127.582031 260.503906 139.625 262.746094 C 151.121094 264.886719 163.003906 267.101562 174.210938 274.953125 C 183.96875 281.789062 197.074219 289.828125 211.957031 291.339844 C 212.632812 291.410156 213.3125 291.449219 213.988281 291.488281 C 199.3125 290.984375 186.335938 284.464844 174.214844 276.617188 C 163.347656 269.582031 151.960938 267.113281 140.949219 264.722656 C 128.53125 262.023438 116.800781 259.480469 108.105469 250.425781 C 101.671875 243.726562 95.617188 235.226562 90.871094 225.402344 C 94.652344 233.097656 99.371094 240.28125 104.773438 246.457031 Z M 105.984375 253.226562 C 106.523438 253.839844 107.066406 254.441406 107.613281 255.042969 C 118.855469 267.257812 133.753906 271.992188 149.527344 277 C 157.1875 279.429688 165.113281 281.945312 172.84375 285.417969 C 188.453125 292.421875 203.253906 295.097656 217.441406 293.433594 C 203.289062 295.445312 188.472656 293.289062 172.785156 286.980469 C 166.503906 284.453125 160.101562 282.335938 153.90625 280.292969 C 136.605469 274.578125 120.265625 269.179688 108.003906 255.726562 C 105.210938 252.664062 102.554688 249.316406 100.0625 245.746094 C 101.925781 248.34375 103.898438 250.84375 105.980469 253.230469 Z M 99.550781 244.003906 C 101.488281 246.738281 103.550781 249.359375 105.734375 251.855469 C 106.359375 252.574219 107 253.28125 107.644531 253.976562 C 118.050781 265.179688 131.855469 269.285156 146.472656 273.644531 C 155.242188 276.253906 164.3125 278.953125 173.117188 283.324219 C 186.332031 289.886719 198.789062 293.21875 210.792969 293.320312 C 198.714844 293.59375 186.183594 290.789062 173.074219 284.910156 C 165.308594 281.425781 157.371094 278.902344 149.695312 276.46875 C 133.996094 271.484375 119.167969 266.777344 108.027344 254.667969 C 105.03125 251.410156 102.191406 247.84375 99.550781 244.007812 Z M 104.929688 247.714844 C 105.847656 248.761719 106.78125 249.785156 107.738281 250.78125 C 116.539062 259.945312 128.34375 262.507812 140.839844 265.21875 C 151.808594 267.601562 163.148438 270.0625 173.9375 277.046875 C 188.527344 286.492188 200.394531 291.058594 212.402344 291.839844 C 198.007812 291.332031 185.28125 285.457031 173.929688 278.691406 C 163.589844 272.53125 152.839844 269.882812 142.445312 267.320312 C 129.46875 264.125 117.21875 261.105469 108.085938 251.488281 C 103.78125 246.953125 99.652344 241.613281 95.96875 235.625 C 98.660156 239.921875 101.660156 243.976562 104.929688 247.71875 Z M 105.207031 249.101562 C 106.023438 250.035156 106.859375 250.953125 107.707031 251.84375 C 116.941406 261.574219 129.269531 264.609375 142.316406 267.828125 C 152.675781 270.378906 163.386719 273.019531 173.660156 279.140625 C 187.835938 287.582031 200.058594 291.769531 212.03125 292.296875 C 197.351562 292.105469 184.484375 286.675781 173.644531 280.761719 C 163.964844 275.480469 153.960938 272.746094 144.289062 270.097656 C 130.625 266.359375 117.71875 262.828125 108.066406 252.546875 C 104.386719 248.632812 100.9375 244.242188 97.8125 239.449219 C 100.09375 242.839844 102.558594 246.074219 105.207031 249.101562 Z M 105.476562 250.480469 C 106.195312 251.304688 106.929688 252.113281 107.675781 252.910156 C 117.429688 263.300781 130.40625 266.851562 144.148438 270.609375 C 153.792969 273.25 163.761719 275.980469 173.390625 281.230469 C 183.441406 286.710938 195.21875 291.785156 208.558594 292.703125 C 197.324219 292.234375 185.671875 288.945312 173.359375 282.832031 C 164.511719 278.441406 155.421875 275.734375 146.632812 273.113281 C 132.089844 268.785156 118.355469 264.691406 108.050781 253.601562 C 104.832031 250.140625 101.800781 246.308594 99 242.179688 C 101.023438 245.074219 103.179688 247.855469 105.480469 250.480469 Z M 106.234375 254.59375 C 106.679688 255.101562 107.128906 255.605469 107.585938 256.105469 C 119.949219 269.671875 136.355469 275.09375 153.726562 280.832031 C 159.914062 282.871094 166.308594 284.984375 172.574219 287.507812 C 185.964844 292.890625 198.730469 295.265625 210.992188 294.628906 C 198.648438 295.640625 185.796875 293.789062 172.503906 289.042969 C 168.371094 287.570312 164.167969 286.175781 160.105469 284.824219 C 140.4375 278.300781 121.867188 272.136719 107.992188 256.777344 C 104.21875 252.597656 100.835938 248.15625 97.832031 243.519531 C 100.394531 247.40625 103.199219 251.113281 106.238281 254.589844 Z M 106.476562 255.960938 C 106.832031 256.367188 107.195312 256.773438 107.554688 257.171875 C 121.535156 272.648438 140.179688 278.835938 159.917969 285.386719 C 163.980469 286.734375 168.179688 288.128906 172.304688 289.601562 C 185.710938 294.382812 198.664062 296.246094 211.105469 295.214844 C 198.578125 296.621094 185.53125 295.28125 172.214844 291.117188 L 170.21875 290.496094 C 147.707031 283.472656 124.425781 276.207031 107.972656 257.839844 C 107.695312 257.527344 107.421875 257.21875 107.144531 256.902344 C 104.222656 253.5625 101.550781 250.0625 99.101562 246.445312 C 101.386719 249.761719 103.84375 252.953125 106.480469 255.964844 Z M 106.675781 257.28125 C 106.957031 257.601562 107.238281 257.925781 107.523438 258.242188 C 124.085938 276.738281 147.445312 284.023438 170.039062 291.074219 L 172.035156 291.695312 C 185.433594 295.882812 198.554688 297.234375 211.160156 295.820312 C 198.464844 297.613281 185.242188 296.777344 171.921875 293.191406 C 150.144531 287.335938 125.519531 278.679688 107.949219 258.898438 C 107.761719 258.6875 107.585938 258.484375 107.398438 258.273438 C 105.417969 256.007812 103.550781 253.667969 101.785156 251.269531 C 103.339844 253.324219 104.96875 255.332031 106.671875 257.28125 Z M 107.917969 261.015625 C 105.953125 258.769531 104.09375 256.453125 102.335938 254.085938 C 103.90625 256.152344 105.542969 258.175781 107.265625 260.140625 L 107.46875 260.371094 C 122.855469 277.792969 144.398438 289.738281 171.503906 295.878906 C 184.285156 298.773438 196.925781 299.296875 209.078125 297.5625 C 173.09375 303.738281 134.265625 291.140625 107.921875 261.015625 Z M 171.636719 295.265625 C 144.664062 289.160156 123.230469 277.277344 107.933594 259.957031 L 107.742188 259.738281 C 105.828125 257.546875 104.015625 255.292969 102.292969 252.984375 C 103.773438 254.921875 105.3125 256.820312 106.929688 258.664062 C 107.117188 258.878906 107.304688 259.089844 107.496094 259.304688 C 125.171875 279.207031 149.902344 287.90625 171.765625 293.789062 C 187.308594 297.96875 202.71875 298.441406 217.320312 295.367188 C 202.742188 298.785156 187.292969 298.8125 171.636719 295.265625 Z M 258.59375 274.386719 C 258.421875 274.535156 258.246094 274.683594 258.070312 274.828125 C 257.875 274.988281 257.683594 275.148438 257.488281 275.308594 C 257.324219 275.441406 257.164062 275.570312 257 275.699219 C 256.832031 275.832031 256.660156 275.972656 256.496094 276.101562 C 256.355469 276.210938 256.214844 276.316406 256.078125 276.417969 C 255.886719 276.566406 255.695312 276.707031 255.503906 276.851562 C 255.476562 276.875 255.445312 276.898438 255.417969 276.917969 C 255.027344 277.207031 254.636719 277.492188 254.246094 277.773438 C 254.226562 277.785156 254.207031 277.796875 254.191406 277.8125 C 253.597656 278.226562 253.007812 278.632812 252.417969 279.035156 C 252.308594 279.105469 252.199219 279.183594 252.089844 279.257812 C 251.773438 279.464844 251.453125 279.691406 251.132812 279.894531 C 251.046875 279.949219 250.964844 279.996094 250.882812 280.054688 C 250.03125 280.597656 249.1875 281.105469 248.347656 281.605469 C 248.058594 281.773438 247.769531 281.945312 247.480469 282.109375 C 246.863281 282.464844 246.253906 282.800781 245.644531 283.132812 C 245.171875 283.382812 244.707031 283.628906 244.238281 283.871094 C 244.179688 283.898438 244.121094 283.929688 244.0625 283.960938 C 243.925781 284.03125 243.792969 284.09375 243.65625 284.164062 C 211.792969 299.867188 192.84375 281.03125 175.898438 264.1875 C 163.4375 251.796875 148.78125 251.5 135.851562 251.238281 C 125.296875 251.027344 115.328125 250.824219 108.21875 244.074219 C 104.71875 240.753906 81.039062 216.886719 81.417969 180.316406 C 81.503906 175.648438 81.953125 170.855469 82.835938 165.964844 C 82.871094 165.769531 82.90625 165.578125 82.945312 165.382812 C 83.09375 164.570312 83.273438 163.75 83.445312 162.933594 C 83.617188 162.160156 83.785156 161.386719 83.976562 160.609375 C 84.054688 160.285156 84.140625 159.957031 84.222656 159.628906 C 84.519531 158.460938 84.832031 157.292969 85.175781 156.125 C 85.175781 156.125 85.175781 156.125 85.175781 156.117188 C 85.554688 154.832031 85.96875 153.542969 86.40625 152.253906 C 86.457031 152.109375 86.503906 151.960938 86.558594 151.8125 C 86.917969 150.773438 87.300781 149.734375 87.699219 148.695312 C 87.878906 148.238281 88.054688 147.777344 88.238281 147.320312 C 88.421875 146.855469 88.621094 146.386719 88.820312 145.921875 C 88.902344 145.722656 88.984375 145.523438 89.066406 145.324219 C 89.105469 145.238281 89.140625 145.152344 89.175781 145.066406 C 89.441406 144.449219 89.707031 143.832031 89.984375 143.21875 C 90.019531 143.144531 90.050781 143.070312 90.082031 142.992188 C 90.101562 142.949219 90.125 142.90625 90.144531 142.863281 C 90.230469 142.683594 90.316406 142.5 90.402344 142.320312 C 90.613281 141.863281 90.835938 141.40625 91.058594 140.949219 C 91.105469 140.847656 91.15625 140.746094 91.203125 140.648438 C 91.300781 140.453125 91.394531 140.261719 91.492188 140.066406 C 91.566406 139.917969 91.640625 139.769531 91.714844 139.621094 C 91.964844 139.128906 92.203125 138.636719 92.457031 138.148438 C 98.332031 127.070312 106.210938 117.292969 115.6875 108.992188 C 159.585938 70.550781 227.554688 76.164062 267.210938 121.511719 C 306.863281 166.855469 303.484375 235.105469 259.589844 273.546875 C 259.261719 273.832031 258.925781 274.109375 258.597656 274.394531 Z M 258.59375 274.386719 " clip-rule="nonzero"/></clipPath><linearGradient x1="-153.394937" gradientTransform="matrix(0.142685, 0.280602, -0.280162, 0.142462, 233.044749, 44.799839)" y1="339.92001" x2="866.379045" gradientUnits="userSpaceOnUse" y2="339.92001" id="1e7ba08ee5"><stop stop-opacity="1" stop-color="rgb(90.99884%, 66.299438%, 59.599304%)" offset="0"/><stop stop-opacity="1" stop-color="rgb(90.99884%, 66.299438%, 59.599304%)" offset="0.0625"/><stop stop-opacity="1" stop-color="rgb(90.921021%, 66.226196%, 59.529114%)" offset="0.09375"/><stop stop-opacity="1" stop-color="rgb(90.597534%, 65.925598%, 59.239197%)" offset="0.0976562"/><stop stop-opacity="1" stop-color="rgb(90.351868%, 65.696716%, 59.01947%)" offset="0.101562"/><stop stop-opacity="1" stop-color="rgb(90.106201%, 65.467834%, 58.799744%)" offset="0.105469"/><stop stop-opacity="1" stop-color="rgb(89.860535%, 65.240479%, 58.580017%)" offset="0.109375"/><stop stop-opacity="1" stop-color="rgb(89.614868%, 65.011597%, 58.360291%)" offset="0.113281"/><stop stop-opacity="1" stop-color="rgb(89.369202%, 64.784241%, 58.140564%)" offset="0.117188"/><stop stop-opacity="1" stop-color="rgb(89.123535%, 64.555359%, 57.920837%)" offset="0.121094"/><stop stop-opacity="1" stop-color="rgb(88.877869%, 64.326477%, 57.701111%)" offset="0.125"/><stop stop-opacity="1" stop-color="rgb(88.632202%, 64.097595%, 57.481384%)" offset="0.128906"/><stop stop-opacity="1" stop-color="rgb(88.386536%, 63.870239%, 57.261658%)" offset="0.132812"/><stop stop-opacity="1" stop-color="rgb(88.140869%, 63.641357%, 57.041931%)" offset="0.136719"/><stop stop-opacity="1" stop-color="rgb(87.895203%, 63.412476%, 56.822205%)" offset="0.140625"/><stop stop-opacity="1" stop-color="rgb(87.649536%, 63.183594%, 56.602478%)" offset="0.144531"/><stop stop-opacity="1" stop-color="rgb(87.40387%, 62.956238%, 56.382751%)" offset="0.148438"/><stop stop-opacity="1" stop-color="rgb(87.158203%, 62.727356%, 56.163025%)" offset="0.152344"/><stop stop-opacity="1" stop-color="rgb(86.912537%, 62.5%, 55.943298%)" offset="0.15625"/><stop stop-opacity="1" stop-color="rgb(86.66687%, 62.271118%, 55.723572%)" offset="0.160156"/><stop stop-opacity="1" stop-color="rgb(86.421204%, 62.042236%, 55.503845%)" offset="0.164062"/><stop stop-opacity="1" stop-color="rgb(86.175537%, 61.813354%, 55.282593%)" offset="0.167969"/><stop stop-opacity="1" stop-color="rgb(85.929871%, 61.585999%, 55.062866%)" offset="0.171875"/><stop stop-opacity="1" stop-color="rgb(85.684204%, 61.357117%, 54.84314%)" offset="0.175781"/><stop stop-opacity="1" stop-color="rgb(85.438538%, 61.128235%, 54.623413%)" offset="0.179688"/><stop stop-opacity="1" stop-color="rgb(85.192871%, 60.899353%, 54.403687%)" offset="0.183594"/><stop stop-opacity="1" stop-color="rgb(84.947205%, 60.671997%, 54.18396%)" offset="0.1875"/><stop stop-opacity="1" stop-color="rgb(84.701538%, 60.443115%, 53.964233%)" offset="0.191406"/><stop stop-opacity="1" stop-color="rgb(84.455872%, 60.215759%, 53.744507%)" offset="0.195312"/><stop stop-opacity="1" stop-color="rgb(84.210205%, 59.986877%, 53.52478%)" offset="0.199219"/><stop stop-opacity="1" stop-color="rgb(83.964539%, 59.757996%, 53.305054%)" offset="0.203125"/><stop stop-opacity="1" stop-color="rgb(83.718872%, 59.529114%, 53.085327%)" offset="0.207031"/><stop stop-opacity="1" stop-color="rgb(83.473206%, 59.301758%, 52.865601%)" offset="0.210938"/><stop stop-opacity="1" stop-color="rgb(83.227539%, 59.072876%, 52.645874%)" offset="0.214844"/><stop stop-opacity="1" stop-color="rgb(82.981873%, 58.843994%, 52.426147%)" offset="0.21875"/><stop stop-opacity="1" stop-color="rgb(82.736206%, 58.615112%, 52.206421%)" offset="0.222656"/><stop stop-opacity="1" stop-color="rgb(82.49054%, 58.387756%, 51.986694%)" offset="0.226562"/><stop stop-opacity="1" stop-color="rgb(82.244873%, 58.158875%, 51.766968%)" offset="0.230469"/><stop stop-opacity="1" stop-color="rgb(81.999207%, 57.931519%, 51.547241%)" offset="0.234375"/><stop stop-opacity="1" stop-color="rgb(81.75354%, 57.702637%, 51.325989%)" offset="0.238281"/><stop stop-opacity="1" stop-color="rgb(81.507874%, 57.473755%, 51.106262%)" offset="0.242188"/><stop stop-opacity="1" stop-color="rgb(81.262207%, 57.244873%, 50.886536%)" offset="0.246094"/><stop stop-opacity="1" stop-color="rgb(81.016541%, 57.017517%, 50.666809%)" offset="0.25"/><stop stop-opacity="1" stop-color="rgb(80.770874%, 56.788635%, 50.447083%)" offset="0.253906"/><stop stop-opacity="1" stop-color="rgb(80.525208%, 56.559753%, 50.227356%)" offset="0.257813"/><stop stop-opacity="1" stop-color="rgb(80.279541%, 56.330872%, 50.007629%)" offset="0.261719"/><stop stop-opacity="1" stop-color="rgb(80.033875%, 56.103516%, 49.787903%)" offset="0.265625"/><stop stop-opacity="1" stop-color="rgb(80.078125%, 56.144714%, 49.827576%)" offset="0.28125"/><stop stop-opacity="1" stop-color="rgb(80.355835%, 56.404114%, 50.076294%)" offset="0.285156"/><stop stop-opacity="1" stop-color="rgb(80.59082%, 56.622314%, 50.286865%)" offset="0.289063"/><stop stop-opacity="1" stop-color="rgb(80.825806%, 56.838989%, 50.495911%)" offset="0.292969"/><stop stop-opacity="1" stop-color="rgb(81.060791%, 57.05719%, 50.706482%)" offset="0.296875"/><stop stop-opacity="1" stop-color="rgb(81.29425%, 57.275391%, 50.915527%)" offset="0.300781"/><stop stop-opacity="1" stop-color="rgb(81.529236%, 57.493591%, 51.126099%)" offset="0.304688"/><stop stop-opacity="1" stop-color="rgb(81.762695%, 57.711792%, 51.335144%)" offset="0.308594"/><stop stop-opacity="1" stop-color="rgb(81.997681%, 57.929993%, 51.545715%)" offset="0.3125"/><stop stop-opacity="1" stop-color="rgb(82.232666%, 58.148193%, 51.754761%)" offset="0.316406"/><stop stop-opacity="1" stop-color="rgb(82.467651%, 58.366394%, 51.965332%)" offset="0.320313"/><stop stop-opacity="1" stop-color="rgb(82.701111%, 58.584595%, 52.174377%)" offset="0.324219"/><stop stop-opacity="1" stop-color="rgb(82.936096%, 58.802795%, 52.384949%)" offset="0.328125"/><stop stop-opacity="1" stop-color="rgb(83.171082%, 59.01947%, 52.593994%)" offset="0.332031"/><stop stop-opacity="1" stop-color="rgb(83.406067%, 59.237671%, 52.804565%)" offset="0.335938"/><stop stop-opacity="1" stop-color="rgb(83.639526%, 59.455872%, 53.013611%)" offset="0.339844"/><stop stop-opacity="1" stop-color="rgb(83.874512%, 59.674072%, 53.224182%)" offset="0.34375"/><stop stop-opacity="1" stop-color="rgb(84.107971%, 59.892273%, 53.433228%)" offset="0.347656"/><stop stop-opacity="1" stop-color="rgb(84.342957%, 60.110474%, 53.643799%)" offset="0.351563"/><stop stop-opacity="1" stop-color="rgb(84.577942%, 60.328674%, 53.852844%)" offset="0.355469"/><stop stop-opacity="1" stop-color="rgb(84.812927%, 60.546875%, 54.063416%)" offset="0.359375"/><stop stop-opacity="1" stop-color="rgb(85.046387%, 60.765076%, 54.272461%)" offset="0.363281"/><stop stop-opacity="1" stop-color="rgb(85.281372%, 60.983276%, 54.483032%)" offset="0.367188"/><stop stop-opacity="1" stop-color="rgb(85.514832%, 61.199951%, 54.692078%)" offset="0.371094"/><stop stop-opacity="1" stop-color="rgb(85.749817%, 61.418152%, 54.902649%)" offset="0.375"/><stop stop-opacity="1" stop-color="rgb(85.984802%, 61.636353%, 55.111694%)" offset="0.378906"/><stop stop-opacity="1" stop-color="rgb(86.219788%, 61.854553%, 55.322266%)" offset="0.382813"/><stop stop-opacity="1" stop-color="rgb(86.453247%, 62.072754%, 55.531311%)" offset="0.386719"/><stop stop-opacity="1" stop-color="rgb(86.688232%, 62.290955%, 55.741882%)" offset="0.390625"/><stop stop-opacity="1" stop-color="rgb(86.921692%, 62.509155%, 55.950928%)" offset="0.394531"/><stop stop-opacity="1" stop-color="rgb(87.156677%, 62.727356%, 56.161499%)" offset="0.398438"/><stop stop-opacity="1" stop-color="rgb(87.391663%, 62.945557%, 56.370544%)" offset="0.402344"/><stop stop-opacity="1" stop-color="rgb(87.626648%, 63.163757%, 56.581116%)" offset="0.40625"/><stop stop-opacity="1" stop-color="rgb(87.860107%, 63.380432%, 56.790161%)" offset="0.410156"/><stop stop-opacity="1" stop-color="rgb(88.095093%, 63.598633%, 57.000732%)" offset="0.414063"/><stop stop-opacity="1" stop-color="rgb(88.330078%, 63.816833%, 57.209778%)" offset="0.417969"/><stop stop-opacity="1" stop-color="rgb(88.565063%, 64.035034%, 57.420349%)" offset="0.421875"/><stop stop-opacity="1" stop-color="rgb(88.798523%, 64.253235%, 57.629395%)" offset="0.425781"/><stop stop-opacity="1" stop-color="rgb(89.033508%, 64.471436%, 57.839966%)" offset="0.429688"/><stop stop-opacity="1" stop-color="rgb(89.266968%, 64.689636%, 58.049011%)" offset="0.433594"/><stop stop-opacity="1" stop-color="rgb(89.501953%, 64.907837%, 58.259583%)" offset="0.4375"/><stop stop-opacity="1" stop-color="rgb(89.736938%, 65.126038%, 58.468628%)" offset="0.441406"/><stop stop-opacity="1" stop-color="rgb(89.971924%, 65.344238%, 58.679199%)" offset="0.445313"/><stop stop-opacity="1" stop-color="rgb(90.205383%, 65.560913%, 58.888245%)" offset="0.449219"/><stop stop-opacity="1" stop-color="rgb(90.440369%, 65.779114%, 59.098816%)" offset="0.453125"/><stop stop-opacity="1" stop-color="rgb(90.673828%, 65.997314%, 59.307861%)" offset="0.457031"/><stop stop-opacity="1" stop-color="rgb(90.908813%, 66.215515%, 59.518433%)" offset="0.460938"/><stop stop-opacity="1" stop-color="rgb(90.745544%, 66.062927%, 59.371948%)" offset="0.46875"/><stop stop-opacity="1" stop-color="rgb(90.324402%, 65.670776%, 58.995056%)" offset="0.472656"/><stop stop-opacity="1" stop-color="rgb(90.066528%, 65.431213%, 58.764648%)" offset="0.476563"/><stop stop-opacity="1" stop-color="rgb(89.808655%, 65.19165%, 58.532715%)" offset="0.480469"/><stop stop-opacity="1" stop-color="rgb(89.550781%, 64.952087%, 58.302307%)" offset="0.484375"/><stop stop-opacity="1" stop-color="rgb(89.292908%, 64.712524%, 58.071899%)" offset="0.488281"/><stop stop-opacity="1" stop-color="rgb(89.035034%, 64.472961%, 57.841492%)" offset="0.492188"/><stop stop-opacity="1" stop-color="rgb(88.777161%, 64.231873%, 57.609558%)" offset="0.496094"/><stop stop-opacity="1" stop-color="rgb(88.519287%, 63.99231%, 57.37915%)" offset="0.5"/><stop stop-opacity="1" stop-color="rgb(88.259888%, 63.752747%, 57.148743%)" offset="0.503906"/><stop stop-opacity="1" stop-color="rgb(88.002014%, 63.513184%, 56.918335%)" offset="0.507812"/><stop stop-opacity="1" stop-color="rgb(87.744141%, 63.272095%, 56.686401%)" offset="0.511719"/><stop stop-opacity="1" stop-color="rgb(87.486267%, 63.032532%, 56.455994%)" offset="0.515625"/><stop stop-opacity="1" stop-color="rgb(87.228394%, 62.792969%, 56.225586%)" offset="0.519531"/><stop stop-opacity="1" stop-color="rgb(86.97052%, 62.553406%, 55.995178%)" offset="0.523438"/><stop stop-opacity="1" stop-color="rgb(86.712646%, 62.313843%, 55.763245%)" offset="0.527344"/><stop stop-opacity="1" stop-color="rgb(86.454773%, 62.07428%, 55.532837%)" offset="0.53125"/><stop stop-opacity="1" stop-color="rgb(86.196899%, 61.833191%, 55.302429%)" offset="0.535156"/><stop stop-opacity="1" stop-color="rgb(85.939026%, 61.593628%, 55.072021%)" offset="0.539062"/><stop stop-opacity="1" stop-color="rgb(85.681152%, 61.354065%, 54.840088%)" offset="0.542969"/><stop stop-opacity="1" stop-color="rgb(85.423279%, 61.114502%, 54.60968%)" offset="0.546875"/><stop stop-opacity="1" stop-color="rgb(85.165405%, 60.874939%, 54.379272%)" offset="0.550781"/><stop stop-opacity="1" stop-color="rgb(84.907532%, 60.635376%, 54.148865%)" offset="0.554688"/><stop stop-opacity="1" stop-color="rgb(84.649658%, 60.394287%, 53.916931%)" offset="0.558594"/><stop stop-opacity="1" stop-color="rgb(84.391785%, 60.154724%, 53.686523%)" offset="0.5625"/><stop stop-opacity="1" stop-color="rgb(84.133911%, 59.915161%, 53.456116%)" offset="0.566406"/><stop stop-opacity="1" stop-color="rgb(83.876038%, 59.675598%, 53.225708%)" offset="0.570312"/><stop stop-opacity="1" stop-color="rgb(83.616638%, 59.434509%, 52.993774%)" offset="0.574219"/><stop stop-opacity="1" stop-color="rgb(83.358765%, 59.194946%, 52.763367%)" offset="0.578125"/><stop stop-opacity="1" stop-color="rgb(83.100891%, 58.955383%, 52.532959%)" offset="0.582031"/><stop stop-opacity="1" stop-color="rgb(82.843018%, 58.71582%, 52.302551%)" offset="0.585938"/><stop stop-opacity="1" stop-color="rgb(82.585144%, 58.476257%, 52.070618%)" offset="0.589844"/><stop stop-opacity="1" stop-color="rgb(82.327271%, 58.236694%, 51.84021%)" offset="0.59375"/><stop stop-opacity="1" stop-color="rgb(82.069397%, 57.995605%, 51.609802%)" offset="0.597656"/><stop stop-opacity="1" stop-color="rgb(81.811523%, 57.756042%, 51.379395%)" offset="0.601562"/><stop stop-opacity="1" stop-color="rgb(81.55365%, 57.516479%, 51.147461%)" offset="0.605469"/><stop stop-opacity="1" stop-color="rgb(81.295776%, 57.276917%, 50.917053%)" offset="0.609375"/><stop stop-opacity="1" stop-color="rgb(81.037903%, 57.037354%, 50.686646%)" offset="0.613281"/><stop stop-opacity="1" stop-color="rgb(80.780029%, 56.797791%, 50.456238%)" offset="0.617188"/><stop stop-opacity="1" stop-color="rgb(80.522156%, 56.556702%, 50.224304%)" offset="0.621094"/><stop stop-opacity="1" stop-color="rgb(80.264282%, 56.317139%, 49.993896%)" offset="0.625"/><stop stop-opacity="1" stop-color="rgb(80.006409%, 56.077576%, 49.763489%)" offset="0.628906"/><stop stop-opacity="1" stop-color="rgb(79.748535%, 55.838013%, 49.533081%)" offset="0.632812"/><stop stop-opacity="1" stop-color="rgb(79.888916%, 55.969238%, 49.658203%)" offset="0.640625"/><stop stop-opacity="1" stop-color="rgb(80.334473%, 56.382751%, 50.056458%)" offset="0.644531"/><stop stop-opacity="1" stop-color="rgb(80.638123%, 56.665039%, 50.328064%)" offset="0.648438"/><stop stop-opacity="1" stop-color="rgb(80.941772%, 56.947327%, 50.59967%)" offset="0.652344"/><stop stop-opacity="1" stop-color="rgb(81.245422%, 57.229614%, 50.871277%)" offset="0.65625"/><stop stop-opacity="1" stop-color="rgb(81.547546%, 57.511902%, 51.142883%)" offset="0.660156"/><stop stop-opacity="1" stop-color="rgb(81.851196%, 57.794189%, 51.41449%)" offset="0.664062"/><stop stop-opacity="1" stop-color="rgb(82.154846%, 58.076477%, 51.686096%)" offset="0.667969"/><stop stop-opacity="1" stop-color="rgb(82.458496%, 58.358765%, 51.957703%)" offset="0.671875"/><stop stop-opacity="1" stop-color="rgb(82.762146%, 58.639526%, 52.229309%)" offset="0.675781"/><stop stop-opacity="1" stop-color="rgb(83.065796%, 58.921814%, 52.500916%)" offset="0.679688"/><stop stop-opacity="1" stop-color="rgb(83.369446%, 59.204102%, 52.772522%)" offset="0.683594"/><stop stop-opacity="1" stop-color="rgb(83.673096%, 59.486389%, 53.044128%)" offset="0.6875"/><stop stop-opacity="1" stop-color="rgb(83.97522%, 59.768677%, 53.315735%)" offset="0.691406"/><stop stop-opacity="1" stop-color="rgb(84.27887%, 60.050964%, 53.587341%)" offset="0.695312"/><stop stop-opacity="1" stop-color="rgb(84.58252%, 60.333252%, 53.858948%)" offset="0.699219"/><stop stop-opacity="1" stop-color="rgb(84.886169%, 60.61554%, 54.130554%)" offset="0.703125"/><stop stop-opacity="1" stop-color="rgb(85.189819%, 60.897827%, 54.400635%)" offset="0.707031"/><stop stop-opacity="1" stop-color="rgb(85.493469%, 61.180115%, 54.672241%)" offset="0.710938"/><stop stop-opacity="1" stop-color="rgb(85.797119%, 61.462402%, 54.943848%)" offset="0.714844"/><stop stop-opacity="1" stop-color="rgb(86.100769%, 61.74469%, 55.215454%)" offset="0.71875"/><stop stop-opacity="1" stop-color="rgb(86.404419%, 62.026978%, 55.487061%)" offset="0.722656"/><stop stop-opacity="1" stop-color="rgb(86.708069%, 62.309265%, 55.758667%)" offset="0.726562"/><stop stop-opacity="1" stop-color="rgb(87.010193%, 62.590027%, 56.030273%)" offset="0.730469"/><stop stop-opacity="1" stop-color="rgb(87.313843%, 62.872314%, 56.30188%)" offset="0.734375"/><stop stop-opacity="1" stop-color="rgb(87.617493%, 63.154602%, 56.573486%)" offset="0.738281"/><stop stop-opacity="1" stop-color="rgb(87.921143%, 63.43689%, 56.845093%)" offset="0.742188"/><stop stop-opacity="1" stop-color="rgb(88.224792%, 63.719177%, 57.116699%)" offset="0.746094"/><stop stop-opacity="1" stop-color="rgb(88.528442%, 64.001465%, 57.388306%)" offset="0.75"/><stop stop-opacity="1" stop-color="rgb(88.832092%, 64.283752%, 57.659912%)" offset="0.753906"/><stop stop-opacity="1" stop-color="rgb(89.135742%, 64.56604%, 57.931519%)" offset="0.757812"/><stop stop-opacity="1" stop-color="rgb(89.437866%, 64.848328%, 58.203125%)" offset="0.761719"/><stop stop-opacity="1" stop-color="rgb(89.741516%, 65.130615%, 58.474731%)" offset="0.765625"/><stop stop-opacity="1" stop-color="rgb(90.045166%, 65.412903%, 58.746338%)" offset="0.769531"/><stop stop-opacity="1" stop-color="rgb(90.348816%, 65.69519%, 59.017944%)" offset="0.773438"/><stop stop-opacity="1" stop-color="rgb(90.652466%, 65.975952%, 59.289551%)" offset="0.777344"/><stop stop-opacity="1" stop-color="rgb(90.956116%, 66.25824%, 59.561157%)" offset="0.78125"/><stop stop-opacity="1" stop-color="rgb(90.737915%, 66.055298%, 59.365845%)" offset="0.785156"/><stop stop-opacity="1" stop-color="rgb(90.519714%, 65.853882%, 59.170532%)" offset="0.789062"/><stop stop-opacity="1" stop-color="rgb(90.261841%, 65.614319%, 58.940125%)" offset="0.792969"/><stop stop-opacity="1" stop-color="rgb(90.003967%, 65.374756%, 58.709717%)" offset="0.796875"/><stop stop-opacity="1" stop-color="rgb(89.746094%, 65.133667%, 58.477783%)" offset="0.800781"/><stop stop-opacity="1" stop-color="rgb(89.48822%, 64.894104%, 58.247375%)" offset="0.804688"/><stop stop-opacity="1" stop-color="rgb(89.230347%, 64.654541%, 58.015442%)" offset="0.808594"/><stop stop-opacity="1" stop-color="rgb(88.972473%, 64.414978%, 57.785034%)" offset="0.8125"/><stop stop-opacity="1" stop-color="rgb(88.7146%, 64.173889%, 57.554626%)" offset="0.816406"/><stop stop-opacity="1" stop-color="rgb(88.456726%, 63.934326%, 57.324219%)" offset="0.820312"/><stop stop-opacity="1" stop-color="rgb(88.198853%, 63.694763%, 57.092285%)" offset="0.824219"/><stop stop-opacity="1" stop-color="rgb(87.940979%, 63.4552%, 56.861877%)" offset="0.828125"/><stop stop-opacity="1" stop-color="rgb(87.683105%, 63.215637%, 56.63147%)" offset="0.832031"/><stop stop-opacity="1" stop-color="rgb(87.425232%, 62.976074%, 56.401062%)" offset="0.835938"/><stop stop-opacity="1" stop-color="rgb(87.167358%, 62.734985%, 56.169128%)" offset="0.839844"/><stop stop-opacity="1" stop-color="rgb(86.909485%, 62.495422%, 55.938721%)" offset="0.84375"/><stop stop-opacity="1" stop-color="rgb(86.650085%, 62.255859%, 55.708313%)" offset="0.847656"/><stop stop-opacity="1" stop-color="rgb(86.392212%, 62.016296%, 55.477905%)" offset="0.851562"/><stop stop-opacity="1" stop-color="rgb(86.134338%, 61.776733%, 55.245972%)" offset="0.855469"/><stop stop-opacity="1" stop-color="rgb(85.876465%, 61.53717%, 55.015564%)" offset="0.859375"/><stop stop-opacity="1" stop-color="rgb(85.618591%, 61.296082%, 54.785156%)" offset="0.863281"/><stop stop-opacity="1" stop-color="rgb(85.360718%, 61.056519%, 54.554749%)" offset="0.867188"/><stop stop-opacity="1" stop-color="rgb(85.102844%, 60.816956%, 54.322815%)" offset="0.871094"/><stop stop-opacity="1" stop-color="rgb(84.844971%, 60.577393%, 54.092407%)" offset="0.875"/><stop stop-opacity="1" stop-color="rgb(84.587097%, 60.336304%, 53.862%)" offset="0.878906"/><stop stop-opacity="1" stop-color="rgb(84.329224%, 60.096741%, 53.631592%)" offset="0.882812"/><stop stop-opacity="1" stop-color="rgb(84.07135%, 59.857178%, 53.399658%)" offset="0.886719"/><stop stop-opacity="1" stop-color="rgb(83.813477%, 59.617615%, 53.16925%)" offset="0.890625"/><stop stop-opacity="1" stop-color="rgb(83.555603%, 59.378052%, 52.938843%)" offset="0.894531"/><stop stop-opacity="1" stop-color="rgb(83.297729%, 59.138489%, 52.708435%)" offset="0.898438"/><stop stop-opacity="1" stop-color="rgb(83.039856%, 58.8974%, 52.476501%)" offset="0.902344"/><stop stop-opacity="1" stop-color="rgb(82.781982%, 58.657837%, 52.246094%)" offset="0.90625"/><stop stop-opacity="1" stop-color="rgb(82.524109%, 58.418274%, 52.015686%)" offset="0.910156"/><stop stop-opacity="1" stop-color="rgb(82.266235%, 58.178711%, 51.785278%)" offset="0.914062"/><stop stop-opacity="1" stop-color="rgb(82.008362%, 57.939148%, 51.553345%)" offset="0.917969"/><stop stop-opacity="1" stop-color="rgb(81.750488%, 57.699585%, 51.322937%)" offset="0.921875"/><stop stop-opacity="1" stop-color="rgb(81.491089%, 57.458496%, 51.092529%)" offset="0.925781"/><stop stop-opacity="1" stop-color="rgb(81.233215%, 57.218933%, 50.862122%)" offset="0.929688"/><stop stop-opacity="1" stop-color="rgb(80.975342%, 56.97937%, 50.630188%)" offset="0.933594"/><stop stop-opacity="1" stop-color="rgb(80.717468%, 56.739807%, 50.39978%)" offset="0.9375"/><stop stop-opacity="1" stop-color="rgb(80.459595%, 56.498718%, 50.169373%)" offset="0.941406"/><stop stop-opacity="1" stop-color="rgb(80.201721%, 56.259155%, 49.938965%)" offset="0.945312"/><stop stop-opacity="1" stop-color="rgb(79.943848%, 56.019592%, 49.707031%)" offset="0.949219"/><stop stop-opacity="1" stop-color="rgb(79.685974%, 55.780029%, 49.476624%)" offset="0.953125"/><stop stop-opacity="1" stop-color="rgb(79.641724%, 55.738831%, 49.436951%)" offset="0.96875"/><stop stop-opacity="1" stop-color="rgb(79.598999%, 55.699158%, 49.398804%)" offset="1"/></linearGradient><clipPath id="a0302f9961"><path d="M 116.398438 112.597656 L 266.398438 112.597656 L 266.398438 262.597656 L 116.398438 262.597656 Z M 116.398438 112.597656 " clip-rule="nonzero"/></clipPath></defs><rect x="-37.5" width="450" fill="#ffffff" y="-37.499999" height="449.999989" fill-opacity="1"/><rect x="-37.5" width="450" fill="#ffffff" y="-37.499999" height="449.999989" fill-opacity="1"/><g fill="#ffbd59" fill-opacity="1"><g transform="translate(174.978317, 229.027367)"><g><path d="M 24.453125 -10.261719 L 24.453125 -48.472656 L 26.273438 -48.472656 C 32.167969 -48.472656 39.082031 -44.394531 41.339844 -38.792969 L 41.992188 -38.792969 L 38.9375 -49.78125 L 2.984375 -49.78125 L 0 -38.792969 L 0.65625 -38.792969 C 2.839844 -44.394531 9.824219 -48.472656 15.648438 -48.472656 L 17.539062 -48.472656 L 17.539062 -10.261719 C 17.539062 -2.546875 16.011719 -0.507812 12.882812 -0.65625 L 12.882812 0 L 29.113281 0 L 29.113281 -0.65625 C 25.984375 -0.507812 24.453125 -2.546875 24.453125 -10.261719 Z M 24.453125 -10.261719 "/></g></g></g><g clip-path="url(#695201922a)"><g clip-path="url(#83a144dfbc)"><g clip-path="url(#aea00a9a14)"><g clip-path="url(#b8e55d2bd0)"><path fill="url(#1e7ba08ee5)" d="M 260.550781 -23.359375 L -20.492188 119.550781 L 125.011719 405.703125 L 406.058594 262.792969 Z M 260.550781 -23.359375 " fill-rule="nonzero"/></g></g></g></g><g fill="#ffbd59" fill-opacity="1"><g transform="translate(151.820188, 198.67323)"><g><path d="M 27.949219 -49.78125 L 20.597656 -49.78125 L 4.441406 -3.785156 C 3.710938 -1.746094 2.328125 -0.507812 0 -0.582031 L 0 0 C 3.421875 0 8.734375 0 12.300781 0 L 12.300781 -0.582031 C 9.972656 -0.507812 8.589844 -1.089844 7.859375 -3.203125 C 7.714844 -3.710938 7.496094 -4.292969 7.351562 -4.804688 C 6.914062 -6.039062 6.988281 -7.132812 7.351562 -8.371094 L 8.878906 -12.445312 C 10.480469 -17.03125 16.375 -14.554688 19.214844 -13.535156 C 25.035156 -11.644531 29.183594 -12.738281 31.730469 -18.121094 L 36.679688 -4.074219 C 37.480469 -1.601562 36.316406 -0.507812 33.84375 -0.582031 L 33.84375 0 L 48.542969 0 L 48.542969 -0.582031 C 45.925781 -0.507812 44.6875 -1.820312 43.960938 -4.074219 Z M 31.296875 -19.578125 C 28.601562 -16.667969 24.890625 -18.484375 21.542969 -19.578125 C 16.738281 -21.179688 13.101562 -20.667969 10.554688 -17.394531 L 21.324219 -47.890625 Z M 31.296875 -19.578125 "/></g></g></g><path fill="#844f89" d="M 197.105469 182.066406 C 186.332031 182.65625 177.855469 181.773438 170.019531 179.976562 C 170.3125 180.160156 170.585938 180.351562 170.855469 180.539062 C 172.242188 181.523438 173.15625 183.050781 173.378906 184.738281 C 173.597656 186.429688 173.101562 188.132812 172.015625 189.445312 C 165.113281 197.738281 160.34375 202.347656 155.992188 213.351562 C 154.445312 210.777344 154.480469 209.1875 154.054688 207.0625 C 150.117188 214.582031 146.941406 226.734375 148.898438 238.417969 C 150.09375 232.4375 152.15625 227.171875 154.21875 223.351562 C 154.515625 226.304688 154.871094 227.90625 156.472656 230.28125 C 160.605469 207.171875 173.957031 188.382812 197.105469 182.066406 " fill-opacity="1" fill-rule="nonzero"/><path fill="#844f89" d="M 235.191406 178.167969 C 236.601562 179.449219 238.078125 179.9375 238.925781 179.019531 C 240.355469 177.476562 238.929688 175.761719 234.613281 173.390625 L 236.308594 176.242188 C 237.117188 177.671875 236.421875 178.089844 235.191406 178.167969 " fill-opacity="1" fill-rule="nonzero"/><g clip-path="url(#a0302f9961)"><path fill="#844f89" d="M 191.3125 112.597656 C 155.953125 112.597656 126.234375 137.195312 118.359375 170.179688 C 117.40625 174.175781 116.769531 178.296875 116.492188 182.511719 C 119.363281 181.03125 122.4375 179.59375 125.75 178.171875 C 129.164062 176.710938 132.832031 175.277344 136.800781 173.847656 C 133.132812 174.152344 129.9375 174.480469 126.25 175.160156 C 124.128906 175.550781 121.851562 176.054688 119.222656 176.746094 C 120.667969 175.378906 123.417969 173.386719 127.148438 171.136719 C 140.363281 163.175781 165.875 152.003906 189.210938 154.011719 L 178.078125 149.496094 C 202.914062 146.59375 225.488281 155.140625 225.003906 163.363281 C 223.492188 172.75 195.605469 149.964844 168.570312 161.265625 C 180.867188 159.164062 186.765625 159.667969 193.886719 163.523438 C 194.855469 166.332031 195.90625 167.59375 198.238281 168.847656 C 197.355469 167.523438 197.421875 166.335938 198.238281 165.460938 L 209.683594 167.71875 C 206.625 175.941406 195.496094 171.910156 188.882812 165.460938 C 191.367188 170.238281 194.304688 173.320312 201.785156 175.136719 C 197.753906 175.710938 194.28125 175.929688 188.882812 175.457031 C 199.75 178.777344 210.453125 179.089844 214.363281 168.523438 C 221.761719 171.632812 226.664062 172.15625 229.679688 166.105469 C 239.597656 168.859375 244.457031 175.613281 241.441406 180.640625 C 240.546875 182.140625 238.871094 183.007812 237.125 182.886719 C 223.738281 181.925781 211.308594 181.589844 202.914062 182.230469 C 205.828125 182.488281 208.371094 183.417969 209.683594 184.652344 C 220.921875 183.292969 228.699219 183.917969 234.820312 187.746094 C 218.011719 182.476562 201.242188 187.320312 182.433594 203.304688 C 187.222656 201.179688 192.535156 199.414062 195.972656 199.160156 C 189.585938 205.671875 185.433594 211.234375 181.695312 218.226562 C 184.324219 216.792969 186.449219 216.097656 188.421875 216.015625 C 182.851562 229.429688 183.8125 240.734375 186.304688 248.984375 C 190.496094 214.816406 203.417969 183.40625 242.152344 191.777344 C 244.722656 194.226562 245.90625 197.683594 246.617188 202.0625 C 257.578125 190.289062 257.292969 176.519531 234.84375 165.136719 C 224.273438 151.957031 205.976562 140.304688 151.476562 149.175781 L 159.054688 151.59375 C 148.4375 154.871094 138.609375 159.050781 129.480469 163.84375 C 139.046875 139.019531 163.15625 121.359375 191.3125 121.359375 C 227.832031 121.359375 257.539062 151.070312 257.539062 187.589844 C 257.539062 224.113281 227.832031 253.820312 191.3125 253.820312 C 187.015625 253.820312 182.816406 253.410156 178.746094 252.625 C 176.859375 252.261719 175.003906 251.820312 173.175781 251.292969 C 171.179688 250.730469 169.21875 250.070312 167.308594 249.320312 C 170.070312 232.101562 175.878906 216.375 186.855469 204.503906 C 176.3125 210.757812 166.375 228.625 159.101562 245.449219 C 158.207031 247.519531 157.347656 249.574219 156.535156 251.589844 C 156.265625 252.261719 156 252.929688 155.738281 253.59375 C 159.066406 255.394531 162.542969 256.953125 166.148438 258.238281 C 174.015625 261.046875 182.484375 262.578125 191.3125 262.578125 C 232.664062 262.578125 266.300781 228.941406 266.300781 187.589844 C 266.300781 146.242188 232.664062 112.597656 191.3125 112.597656 " fill-opacity="1" fill-rule="nonzero"/></g><g fill="#ffbd59" fill-opacity="1"><g transform="translate(134.929434, 116.527586)"><g><path d="M 0.0234375 -10.136719 L -1.117188 -9.5 L 0.359375 -0.972656 C 0.425781 -0.59375 0.316406 -0.28125 -0.0507812 -0.0898438 L 0 0 C 0.53125 -0.296875 1.355469 -0.757812 1.90625 -1.066406 L 1.855469 -1.15625 C 1.5 -0.941406 1.238281 -0.914062 0.941406 -1.175781 C 0.875 -1.242188 0.789062 -1.316406 0.722656 -1.382812 C 0.546875 -1.535156 0.464844 -1.710938 0.414062 -1.933594 L 0.300781 -2.699219 C 0.148438 -3.546875 1.277344 -3.675781 1.804688 -3.761719 C 2.871094 -3.972656 3.421875 -4.5 3.351562 -5.558594 L 5.332031 -3.808594 C 5.671875 -3.492188 5.585938 -3.222656 5.195312 -3.019531 L 5.246094 -2.929688 L 7.523438 -4.203125 L 7.476562 -4.292969 C 7.074219 -4.054688 6.769531 -4.152344 6.460938 -4.4375 Z M 3.15625 -5.746094 C 2.992188 -5.058594 2.257812 -5.019531 1.644531 -4.898438 C 0.761719 -4.730469 0.242188 -4.339844 0.128906 -3.609375 L -0.839844 -9.269531 Z M 3.15625 -5.746094 "/></g></g></g><g fill="#ffbd59" fill-opacity="1"><g transform="translate(151.927448, 108.194672)"><g><path d="M 1.398438 -2.363281 L 0.878906 -3.988281 C 1.042969 -4.363281 1.421875 -4.960938 1.816406 -5.332031 C 2.453125 -5.929688 2.949219 -5.738281 3.445312 -5.082031 C 4.023438 -4.34375 4.636719 -3.226562 5.34375 -2.554688 C 5.71875 -2.1875 6.175781 -1.980469 6.78125 -2.175781 C 7.136719 -2.289062 7.445312 -2.550781 7.503906 -2.964844 L 7.394531 -3.007812 C 7.214844 -2.722656 6.882812 -2.789062 6.644531 -2.933594 C 6.050781 -3.269531 4.933594 -5.015625 4.476562 -5.628906 C 4.121094 -6.113281 3.613281 -6.34375 2.886719 -6.191406 C 3.914062 -6.96875 4.988281 -7.800781 4.597656 -9.019531 C 4.210938 -10.226562 2.886719 -10.207031 1.890625 -9.890625 L -2.699219 -8.417969 L -2.664062 -8.304688 C -2.144531 -8.5 -1.769531 -8.226562 -1.351562 -6.921875 L 0.230469 -1.988281 C 0.648438 -0.683594 0.5 -0.253906 -0.0351562 -0.109375 L 0 0 L 2.742188 -0.878906 L 2.707031 -0.992188 C 2.1875 -0.796875 1.820312 -1.058594 1.398438 -2.363281 Z M -0.671875 -8.824219 L 1.039062 -9.371094 C 1.898438 -9.648438 3.0625 -9.789062 3.402344 -8.691406 C 3.757812 -7.582031 2.273438 -6.320312 1.644531 -5.535156 C 1.300781 -5.125 0.992188 -4.730469 0.777344 -4.308594 Z M -0.671875 -8.824219 "/></g></g></g><g fill="#ffbd59" fill-opacity="1"><g transform="translate(169.6943, 103.524052)"><g><path d="M 6.152344 -7.765625 C 5.992188 -9.125 6.21875 -9.527344 6.785156 -9.566406 L 6.773438 -9.683594 L 4.886719 -9.464844 L 4.898438 -9.347656 C 5.460938 -9.441406 5.773438 -9.097656 5.933594 -7.738281 L 6.425781 -3.476562 C 5.136719 -5.527344 2.980469 -7.410156 0.882812 -9 L -1.019531 -8.78125 L -1.003906 -8.664062 C -0.457031 -8.753906 -0.144531 -8.414062 0.015625 -7.050781 L 0.613281 -1.90625 C 0.769531 -0.542969 0.542969 -0.152344 -0.0117188 -0.117188 L 0 0 L 1.875 -0.21875 L 1.859375 -0.332031 C 1.3125 -0.242188 1 -0.570312 0.84375 -1.933594 L 0.121094 -8.171875 C 2.699219 -6.246094 5.347656 -3.808594 6.546875 -0.757812 L 6.957031 -0.808594 Z M 6.152344 -7.765625 "/></g></g></g><g fill="#ffbd59" fill-opacity="1"><g transform="translate(187.803676, 102.368956)"><g><path d="M 5.144531 -8.4375 C 7.578125 -8.234375 9.382812 -6.097656 9.175781 -3.664062 C 8.972656 -1.230469 6.835938 0.574219 4.402344 0.371094 C 1.96875 0.164062 0.164062 -1.96875 0.371094 -4.402344 C 0.574219 -6.835938 2.707031 -8.644531 5.144531 -8.4375 Z M 3.683594 -8.066406 C 1.988281 -7.613281 1.105469 -5.445312 1.707031 -3.203125 C 2.3125 -0.972656 4.164062 0.464844 5.859375 0.0117188 C 7.546875 -0.445312 8.441406 -2.625 7.835938 -4.855469 C 7.234375 -7.082031 5.371094 -8.523438 3.683594 -8.066406 Z M 3.683594 -8.066406 "/></g></g></g><g fill="#ffbd59" fill-opacity="1"><g transform="translate(206.782751, 105.01285)"><g><path d="M 3.917969 -6.160156 C 4.296875 -7.476562 4.660156 -7.761719 5.1875 -7.582031 L 5.21875 -7.695312 L 2.449219 -8.492188 L 2.417969 -8.378906 C 2.960938 -8.25 3.117188 -7.816406 2.738281 -6.5 L 1.300781 -1.519531 C 0.921875 -0.207031 0.558594 0.0664062 0.03125 -0.113281 L 0 0 L 6.46875 1.867188 L 7.832031 -0.160156 L 7.722656 -0.191406 C 6.933594 0.816406 5.328125 1.296875 4.113281 0.945312 L 2.039062 0.347656 Z M 3.917969 -6.160156 "/></g></g></g><g fill="#ffbd59" fill-opacity="1"><g transform="translate(223.610161, 110.849386)"><g><path d="M 0 0 L 2.992188 1.527344 C 4.871094 2.484375 7.078125 2.84375 8.800781 -0.53125 C 10.527344 -3.914062 8.863281 -5.402344 7.007812 -6.347656 L 4.015625 -7.875 L 3.964844 -7.769531 C 4.46875 -7.539062 4.542969 -7.082031 3.917969 -5.863281 L 1.566406 -1.246094 C 0.941406 -0.0273438 0.535156 0.171875 0.0546875 -0.105469 Z M 5.742188 -6.734375 L 7.226562 -5.976562 C 8.78125 -5.183594 8.816406 -3.261719 7.707031 -1.085938 C 6.597656 1.085938 5.007812 2.292969 3.421875 1.484375 L 1.9375 0.726562 Z M 5.742188 -6.734375 "/></g></g></g><g fill="#ffbd59" fill-opacity="1"><g transform="translate(239.129714, 119.915873)"><g/></g></g><g fill="#ffbd59" fill-opacity="1"><g transform="translate(249.758864, 128.689402)"><g><path d="M 4.3125 1.886719 L 9.226562 -2.789062 L 9.449219 -2.558594 C 10.171875 -1.796875 10.492188 -0.410156 10.050781 0.566406 L 10.128906 0.648438 L 11.167969 -1.089844 L 6.765625 -5.710938 L 4.988281 -4.75 L 5.066406 -4.664062 C 6.054688 -5.070312 7.4375 -4.671875 8.148438 -3.921875 L 8.378906 -3.679688 L 3.46875 1 C 2.476562 1.945312 2.027344 1.996094 1.660156 1.578125 L 1.578125 1.65625 L 3.566406 3.742188 L 3.648438 3.664062 C 3.246094 3.277344 3.320312 2.832031 4.3125 1.886719 Z M 4.3125 1.886719 "/></g></g></g><g fill="#ffbd59" fill-opacity="1"><g transform="translate(261.405911, 142.073319)"><g><path d="M 1.886719 3.117188 L 2.570312 4.246094 L 6.566406 3.410156 L 3.96875 6.554688 L 4.652344 7.683594 L 13.105469 5.902344 C 13.492188 5.820312 13.796875 5.921875 14 6.285156 L 14.097656 6.222656 C 13.785156 5.703125 13.304688 4.90625 12.980469 4.378906 L 12.882812 4.4375 C 13.101562 4.773438 13.144531 5.019531 12.890625 5.324219 C 12.816406 5.398438 12.757812 5.480469 12.695312 5.546875 C 12.546875 5.730469 12.375 5.816406 12.144531 5.867188 L 4.859375 7.40625 L 10.113281 1.039062 C 10.398438 0.683594 10.683594 0.78125 10.894531 1.152344 L 10.996094 1.09375 L 9.644531 -1.140625 L 9.542969 -1.078125 C 9.789062 -0.699219 9.695312 -0.402344 9.4375 -0.078125 L 6.796875 3.121094 L 2.777344 3.96875 L 8.035156 -2.402344 C 8.316406 -2.753906 8.605469 -2.65625 8.8125 -2.285156 L 8.914062 -2.34375 L 7.5625 -4.578125 L 7.460938 -4.515625 C 7.707031 -4.136719 7.617188 -3.839844 7.355469 -3.515625 Z M 1.886719 3.117188 "/></g></g></g><g fill="#ffbd59" fill-opacity="1"><g transform="translate(272.088866, 162.270583)"><g><path d="M 9.953125 1.914062 L 9.542969 0.675781 L 0.886719 0.535156 C 0.503906 0.527344 0.214844 0.363281 0.0976562 -0.03125 L 0 0 C 0.191406 0.578125 0.488281 1.472656 0.691406 2.070312 L 0.789062 2.039062 C 0.644531 1.652344 0.664062 1.386719 0.980469 1.144531 C 1.058594 1.089844 1.144531 1.023438 1.222656 0.96875 C 1.40625 0.824219 1.59375 0.777344 1.824219 0.769531 L 2.59375 0.796875 C 3.457031 0.808594 3.371094 1.941406 3.359375 2.476562 C 3.367188 3.5625 3.785156 4.203125 4.832031 4.328125 L 2.746094 5.949219 C 2.371094 6.222656 2.125 6.089844 1.996094 5.667969 L 1.898438 5.699219 L 2.722656 8.175781 L 2.820312 8.144531 C 2.664062 7.707031 2.8125 7.425781 3.152344 7.175781 Z M 5.054688 4.171875 C 4.414062 3.882812 4.511719 3.15625 4.507812 2.53125 C 4.507812 1.632812 4.21875 1.046875 3.523438 0.800781 L 9.265625 0.90625 Z M 5.054688 4.171875 "/></g></g></g><g fill="#ffbd59" fill-opacity="1"><g transform="translate(277.087516, 180.532253)"><g><path d="M 7.207031 1.160156 C 8.566406 0.992188 8.972656 1.210938 9.015625 1.765625 L 9.128906 1.753906 L 8.769531 -1.105469 L 8.652344 -1.089844 C 8.75 -0.542969 8.410156 -0.226562 7.050781 -0.0546875 L 1.910156 0.59375 C 0.550781 0.765625 0.160156 0.539062 0.117188 -0.015625 L 0 0 L 0.84375 6.679688 L 3.246094 7.132812 L 3.230469 7.015625 C 1.992188 6.691406 0.917969 5.40625 0.757812 4.152344 L 0.488281 2.007812 Z M 7.207031 1.160156 "/></g></g></g><g fill="#ffbd59" fill-opacity="1"><g transform="translate(278.40199, 198.287143)"><g><path d="M 8.46875 5.574219 L 8.558594 4.269531 L 0.613281 0.832031 C 0.261719 0.679688 0.0625 0.417969 0.101562 0.0078125 L 0 0 C -0.0429688 0.605469 -0.109375 1.546875 -0.152344 2.179688 L -0.0507812 2.1875 C -0.0351562 1.773438 0.0859375 1.535156 0.46875 1.433594 C 0.5625 1.414062 0.667969 1.382812 0.757812 1.363281 C 0.984375 1.300781 1.175781 1.328125 1.390625 1.40625 L 2.09375 1.726562 C 2.886719 2.070312 2.375 3.082031 2.15625 3.574219 C 1.75 4.578125 1.890625 5.328125 2.8125 5.847656 L 0.261719 6.546875 C -0.1875 6.660156 -0.363281 6.4375 -0.320312 6 L -0.421875 5.992188 L -0.609375 8.597656 L -0.503906 8.605469 C -0.484375 8.140625 -0.238281 7.9375 0.171875 7.835938 Z M 3.074219 5.789062 C 2.59375 5.273438 2.960938 4.640625 3.199219 4.0625 C 3.542969 3.230469 3.496094 2.578125 2.949219 2.085938 L 8.214844 4.375 Z M 3.074219 5.789062 "/></g></g></g><path stroke-linecap="butt" transform="matrix(0.258143, 0.698191, -0.703458, 0.26009, 188.552541, 170.192216)" fill="none" stroke-linejoin="miter" d="M -0.000990121 1.501428 L 29.227268 1.498857 " stroke="#ffbd59" stroke-width="3" stroke-opacity="1" stroke-miterlimit="4"/></svg>